# xmcd
#
# Track frame offsets:
#	150
#	17907
#	34983
#	52323
#	67674
#	84928
#	99358
#	117142
#	134200
#	151558
#	166899
#	184163
#
# Disc length: 2648 seconds
#
# Revision: 1
# Processed by: cddbd v1.5.2PL0 Copyright (c) Steve Scherf et al.
# Submitted via: audiograbber 1.83.01
#
DISCID=960a560c
DTITLE=Karaoke Country Hot Hits - Country ChartBusters Vol.181
DYEAR=1900
DGENRE=Karaoke
TTITLE0=Change (Guide Vocals)
TTITLE1=Forever Works For Me (Guide Vocals)
TTITLE2=That's The Beat of a Heart (Guide Vocals)
TTITLE3=Flowers on the Wall (Guide Vocals)
TTITLE4=Almost Doesn't Count (Guide Vocals)
TTITLE5=Coming Up Short Again (Guide Vocals)
TTITLE6=Change (Performance Tracks)
TTITLE7=Forever Works for Me (Performance Tracks)
TTITLE8=That's the Beat of a Heart (Performance Tracks)
TTITLE9=Flowers on the Wall (Performance Tracks)
TTITLE10=Almost Doesn't Count (Performance Tracks)
TTITLE11=Coming up Short Again (Performance Tracks)
EXTD=
EXTT0=
EXTT1=
EXTT2=
EXTT3=
EXTT4=
EXTT5=
EXTT6=
EXTT7=
EXTT8=
EXTT9=
EXTT10=
EXTT11=
PLAYORDER=
